<svg width="106" height="34" fill="none" xmlns="http://www.w3.org/2000/svg"><path d="M31.966 11.414c-.086-2.75-.355-3.466-2.32-4.632-.572-.34-1.218-.682-1.909-1.05-2.016-1.078-3.26-1.636-5.233-2.548a58.52 58.52 0 01-4.562-2.33c-1.106-.631-2.185-1.43-4.378-.241a427.494 427.494 0 00-5.057 2.775A282.74 282.74 0 004.785 5.51c-.816.474-1.577.924-2.28 1.34C-.03 8.35.217 8.88.206 11.017c-.01 2.042-.054 4.09-.088 6.148C.082 19.213 0 21.252 0 23.284c0 2.54.59 2.54 2.562 4.012a20.385 20.385 0 003.662 2.213c2.632 1.332 2.027 1.096 4.381 2.278.715.359 1.57.838 2.474 1.264 2.301 1.086 3.132 1.145 5.93-.294a71.656 71.656 0 002.986-1.624c2.384-1.374 3.888-2.186 7.511-4.556 2.183-1.428 2.511-1.527 2.493-4.46-.01-1.645-.064-3.295-.092-4.951-.025-1.495.12-3.825.059-5.752zm-7.294 7.718c-.01-1.678-.029-3.338-.058-4.98.61-.45 1.269-.907 1.99-1.36.634-.4 1.601-.945 2.487-1.423.048 1.66.078 3.347.092 5.064-1.362.88-2.919 1.795-4.51 2.7zm-8.15 4.46a131.51 131.51 0 00-4.41-2.317l-.162-.082c1.6-.937 2.922-1.708 3.87-2.26l.889-.518c1.49.916 2.943 1.83 4.36 2.744l-.241.135a156.943 156.943 0 01-4.306 2.298zM6.04 12.792c.868.546 1.419.914 2.093 1.35-.084 1.664-.134 3.282-.211 5.009a133.694 133.694 0 01-5.112-2.772c.016-1.812.048-3.598.1-5.348 1.03.54 2.345 1.266 3.13 1.76zm15.792.81a363.3 363.3 0 01.03 5.546l-4.175-2.473c-.01-.869-.02-1.738-.022-2.62a310.62 310.62 0 01.012-3.061c1.418.87 2.804 1.74 4.155 2.608zm-6.648-2.26v1.594a898.352 898.352 0 01-.012 3.643 4756.965 4756.965 0 01-4.706 2.71c.04-1.78.086-3.54.148-5.277 1.797-1.053 3.272-1.913 4.304-2.514l.266-.155zm12.602-2.36a485.93 485.93 0 01-2.631 1.673c-.674.424-1.345.842-2.015 1.26l-4.437-2.628a159.453 159.453 0 004.271-2.631 46.772 46.772 0 004.812 2.326zM14.493 2.95c1.116-.66 1.653-.41 2.506.123.728.456 1.536.955 2.416 1.485l1.034.623a61.611 61.611 0 01-2.62 1.811c-.494.323-.937.602-1.454.915l-5.281-3.13c.466-.233 1.02-.516 1.799-.937a50.886 50.886 0 001.6-.89zM5.215 8.293C7.718 6.656 7.897 6.512 8.707 6.04c.088-.051.17-.1.252-.146 1.8 1.004 3.629 2.054 5.483 3.152l-1.68.97c-1.282.739-2.391 1.377-3.279 1.887-.663-.414-1.327-.827-1.995-1.247a445.705 445.705 0 01-2.984-1.898l.71-.464zM2.872 24.61a262.336 262.336 0 01-.07-5.416 176.48 176.48 0 015.013 2.514 466.64 466.64 0 00-.204 5.578 98.546 98.546 0 01-4.739-2.677zm7.383 4.029c.023-1.411.051-2.83.09-4.263.013-.447.022-.89.034-1.335 1.65.859 3.296 1.719 4.857 2.577-.029.916-.064 1.879-.106 2.646-.05.877-.066 1.736-.099 2.584a107.952 107.952 0 01-4.776-2.21zm7.445 1.846c.046-1.309.087-3.28.119-4.687a196.652 196.652 0 014.01-2.467l-.012.986a360.8 360.8 0 01-.09 3.97c-.465.252-.869.48-1.183.673-.92.557-1.87 1.066-2.844 1.526zm6.946-3.72c.02-1.683.03-3.385.03-5.106a184.08 184.08 0 014.516-2.515 275.258 275.258 0 01-.066 5.304c-1.399.75-3 1.562-4.48 2.318zM61.141 9.393h4.007v.085c-.915.257-1.502.643-2.243 2.507l-4.638 11.677-2.047 1.392.065-.45-3.18-8.077-2.765 7.134-2.047 1.393.066-.45-5.4-13.754c-.219-.558-.632-1.179-.959-1.457h5.466v.085c-1.525.129-2.396.579-1.655 2.486l4.29 11.14 2.765-7.198-1.981-5.056c-.218-.558-.632-1.179-.959-1.457h5.466v.085c-1.524.129-2.395.579-1.655 2.486l4.29 11.14 4.399-11.14c.74-1.864-.065-2.229-1.285-2.486v-.085zm15.374 12.854l.109.086c-.653 1.2-2.417 2.207-4.66 2.207-3.027 0-5.51-1.864-5.51-5.1 0-3.449 2.875-5.57 6.033-5.57 4.529 0 5.03 4.564 2.308 4.564h-6.228c.022 2.935 1.72 5.163 4.333 5.163 1.154 0 2.94-.428 3.615-1.35zm-4.812-7.991c-1.764 0-3.027 1.414-3.136 3.835l5.357-.064c1.328-.022.61-3.771-2.221-3.771zm9.124 8.056c0 1.157.152 1.757 1.241 1.992v.086h-3.44l.195-1.328V10.27c0-.857-.413-.75-1.763-.343V9.8L80.936 8l-.11.836v13.476zm8.035 2.228c-3.027 0-5.596-1.864-5.596-5.12 0-3.429 2.809-5.55 6.053-5.55 1.764 0 3.093.622 3.768 1.436l-2.025 3h-.044c.915-2.293-.218-4.093-2.352-4.071-1.96 0-3.288 1.542-3.288 4.135 0 2.956 1.742 5.227 4.399 5.227 1.045 0 2.504-.343 3.18-1.221l.108.086c-.653 1.157-2.069 2.078-4.203 2.078zm11.498-10.67c3.31 0 5.64 2.164 5.64 5.335 0 3.15-2.33 5.335-5.64 5.335-3.31 0-5.64-2.164-5.64-5.335 0-3.15 2.33-5.335 5.64-5.335zm.849 10.306c1.721 0 2.744-1.35 2.744-3.578 0-2.957-1.742-6.363-4.442-6.363-1.72 0-2.744 1.35-2.744 3.578 0 2.956 1.742 6.363 4.442 6.363z" fill="#fff"/></svg>